name Run_200 01
datacolumns 19
datarows 28
range 3.175000 3.203125
endheader
time	ground_force_vx	ground_force_vy	ground_force_vz	ground_force_px	ground_force_py	ground_force_pz	ground_force_vx	ground_force_vy	ground_force_vz	ground_force_px	ground_force_py	ground_force_pz	ground_torque_x	ground_torque_y	ground_torque_z	ground_torque_x	ground_torque_y	ground_torque_z
3.175000	74.271080	594.585388	-19.063259	0.307816	0.000000	-0.248804	0.000000	0.000000	0.000000	0.000000	0.000000	0.000000	0.000000	-0.815922	0.000000	0.000000	0.000000	0.000000	
3.176042	74.277458	581.872375	-17.750050	0.306370	0.000000	-0.248812	0.000000	0.000000	0.000000	0.000000	0.000000	0.000000	0.000000	-0.899804	0.000000	0.000000	0.000000	0.000000	
3.177083	74.250359	569.239929	-16.458282	0.304925	0.000000	-0.248820	0.000000	0.000000	0.000000	0.000000	0.000000	0.000000	0.000000	-0.982112	0.000000	0.000000	0.000000	0.000000	
3.178125	74.194977	556.695801	-15.189189	0.303482	0.000000	-0.248828	0.000000	0.000000	0.000000	0.000000	0.000000	0.000000	0.000000	-1.062797	0.000000	0.000000	0.000000	0.000000	
3.179167	74.115982	544.247375	-13.943947	0.302041	0.000000	-0.248833	0.000000	0.000000	0.000000	0.000000	0.000000	0.000000	0.000000	-1.141814	0.000000	0.000000	0.000000	0.000000	
3.180208	74.017395	531.901489	-12.723680	0.300603	0.000000	-0.248837	0.000000	0.000000	0.000000	0.000000	0.000000	0.000000	0.000000	-1.219126	0.000000	0.000000	0.000000	0.000000	
3.181250	73.902443	519.664368	-11.529467	0.299169	0.000000	-0.248838	0.000000	0.000000	0.000000	0.000000	0.000000	0.000000	0.000000	-1.294701	0.000000	0.000000	0.000000	0.000000	
3.182292	73.773506	507.541321	-10.362339	0.297741	0.000000	-0.248836	0.000000	0.000000	0.000000	0.000000	0.000000	0.000000	0.000000	-1.368513	0.000000	0.000000	0.000000	0.000000	
3.183333	73.632042	495.536896	-9.223287	0.296318	0.000000	-0.248830	0.000000	0.000000	0.000000	0.000000	0.000000	0.000000	0.000000	-1.440543	0.000000	0.000000	0.000000	0.000000	
3.184375	73.478645	483.654694	-8.113255	0.294904	0.000000	-0.248819	0.000000	0.000000	0.000000	0.000000	0.000000	0.000000	0.000000	-1.510776	0.000000	0.000000	0.000000	0.000000	
3.185417	73.313019	471.897552	-7.033145	0.293499	0.000000	-0.248805	0.000000	0.000000	0.000000	0.000000	0.000000	0.000000	0.000000	-1.579203	0.000000	0.000000	0.000000	0.000000	
3.186458	73.134132	460.267456	-5.983811	0.292105	0.000000	-0.248785	0.000000	0.000000	0.000000	0.000000	0.000000	0.000000	0.000000	-1.645821	0.000000	0.000000	0.000000	0.000000	
3.187500	72.940308	448.765717	-4.966059	0.290724	0.000000	-0.248760	0.000000	0.000000	0.000000	0.000000	0.000000	0.000000	0.000000	-1.710632	0.000000	0.000000	0.000000	0.000000	
3.188542	72.729424	437.393097	-3.980639	0.289358	0.000000	-0.248728	0.000000	0.000000	0.000000	0.000000	0.000000	0.000000	0.000000	-1.773643	0.000000	0.000000	0.000000	0.000000	
3.189583	72.499031	426.149933	-3.028247	0.288007	0.000000	-0.248690	0.000000	0.000000	0.000000	0.000000	0.000000	0.000000	0.000000	-1.834864	0.000000	0.000000	0.000000	0.000000	
3.190625	72.246620	415.036285	-2.109518	0.286673	0.000000	-0.248645	0.000000	0.000000	0.000000	0.000000	0.000000	0.000000	0.000000	-1.894312	0.000000	0.000000	0.000000	0.000000	
3.191667	71.969727	404.052185	-1.225025	0.285358	0.000000	-0.248592	0.000000	0.000000	0.000000	0.000000	0.000000	0.000000	0.000000	-1.952005	0.000000	0.000000	0.000000	0.000000	
3.192708	71.666153	393.197693	-0.375271	0.284061	0.000000	-0.248530	0.000000	0.000000	0.000000	0.000000	0.000000	0.000000	0.000000	-2.007968	0.000000	0.000000	0.000000	0.000000	
3.193750	71.334084	382.473083	0.439304	0.282783	0.000000	-0.248458	0.000000	0.000000	0.000000	0.000000	0.000000	0.000000	0.000000	-2.062227	0.000000	0.000000	0.000000	0.000000	
3.194792	70.972191	371.878967	1.218334	0.281525	0.000000	-0.248375	0.000000	0.000000	0.000000	0.000000	0.000000	0.000000	0.000000	-2.114813	0.000000	0.000000	0.000000	0.000000	
3.195833	70.579712	361.416351	1.961521	0.280285	0.000000	-0.248280	0.000000	0.000000	0.000000	0.000000	0.000000	0.000000	0.000000	-2.165757	0.000000	0.000000	0.000000	0.000000	
3.196875	70.156464	351.086761	2.668635	0.279064	0.000000	-0.248171	0.000000	0.000000	0.000000	0.000000	0.000000	0.000000	0.000000	-2.215096	0.000000	0.000000	0.000000	0.000000	
3.197917	69.702843	340.892212	3.339516	0.277860	0.000000	-0.248047	0.000000	0.000000	0.000000	0.000000	0.000000	0.000000	0.000000	-2.262867	0.000000	0.000000	0.000000	0.000000	
3.198958	69.219749	330.835205	3.974066	0.276672	0.000000	-0.247906	0.000000	0.000000	0.000000	0.000000	0.000000	0.000000	0.000000	-2.309109	0.000000	0.000000	0.000000	0.000000	
3.200000	68.708565	320.918762	4.572251	0.275499	0.000000	-0.247745	0.000000	0.000000	0.000000	0.000000	0.000000	0.000000	0.000000	-2.353861	0.000000	0.000000	0.000000	0.000000	
3.201042	68.171028	311.146301	5.134097	0.274341	0.000000	-0.247564	0.000000	0.000000	0.000000	0.000000	0.000000	0.000000	0.000000	-2.397166	0.000000	0.000000	0.000000	0.000000	
3.202083	67.609116	301.521667	5.659684	0.273195	0.000000	-0.247360	0.000000	0.000000	0.000000	0.000000	0.000000	0.000000	0.000000	-2.439067	0.000000	0.000000	0.000000	0.000000	
3.203125	67.025017	292.048981	6.149148	0.272063	0.000000	-0.247131	0.000000	0.000000	0.000000	0.000000	0.000000	0.000000	0.000000	-2.479604	0.000000	0.000000	0.000000	0.000000	
